<mxfile host="app.diagrams.net" modified="2023-08-24T07:54:22.026Z" agent="Mozilla/5.0 (Windows NT 10.0; Win64; x64; rv:109.0) Gecko/20100101 Firefox/116.0" version="21.6.9" etag="NslzN5rQopvVPPp-3Tpy" type="github">
  <diagram name="第 1 页" id="QQhyyV3wXBRqc4yhfBeY">
    <mxGraphModel>
      <root>
        <mxCell id="0" />
        <mxCell id="1" parent="0" />
      </root>
    </mxGraphModel>
  </diagram>
</mxfile>
